<?xml version="1.0" encoding="UTF-8"?>
<svg xmlns="http://www.w3.org/2000/svg" xmlns:xlink="http://www.w3.org/1999/xlink" xmlns:cge="http://www.cim.com" xlink="" viewBox="0 0 1800 1200" source="ForceView">
	<defs>
		<symbol id="net:cisco@1" viewBox="0 0 32 32">
			<image width="32" height="32" x="0" y="0" xlink:href="net_switch_0.png" />
		</symbol>
		<symbol id="net:h3c@1" viewBox="0 0 32 32">
			<image width="32" height="32" x="0" y="0" xlink:href="net_switch_0.png" />
		</symbol>
		<symbol id="firewall:topsec@1" viewBox="0 0 32 32">
			<image width="32" height="32" x="0" y="0" xlink:href="firewall_topsec_0.png" />
		</symbol>
		<symbol id="host:linux@1" viewBox="0 0 65 26">
			<image width="65" height="26" x="0" y="0" xlink:href="host_linux_0.png" />
		</symbol>
		<symbol id="host:tru64@1" viewBox="0 0 65 26">
			<image width="65" height="26" x="0" y="0" xlink:href="host_tru64_0.png" />
		</symbol>
		<symbol id="防火墙:防火墙@1" viewBox="0 0 32 32">
			<image width="32" height="32" x="0" y="0" xlink:href="firewall_0.png" />
		</symbol>
		<symbol id="交换机:交换机@1" viewBox="0 0 32 32">
			<image width="32" height="32" x="0" y="0" xlink:href="net_switch_0.png" />
		</symbol>
		<symbol id="服务器:服务器@1" viewBox="0 0 65 26">
			<image width="65" height="26" x="0" y="0" xlink:href="host_server_0.png" />
		</symbol>
		<symbol id="WAP:WAP@1" viewBox="0 0 32 32">
			<image width="32" height="32" x="0" y="0" xlink:href="wap_0.png" />
		</symbol>
		<symbol id="三层交换机:三层交换机@1" viewBox="0 0 26 25">
			<image width="26" height="25" x="0" y="0" xlink:href="net_switch1_0.png" />
		</symbol>
		<symbol id="路由器:路由器@1" viewBox="0 0 32 32">
			<image width="32" height="32" x="0" y="0" xlink:href="net_router_0.png" />
		</symbol>
		<symbol id="子图:子图@1" viewBox="0 0 64 64">
			<image width="64" height="64" x="0" y="0" xlink:href="area_0.png" />
		</symbol>
	</defs>
	<g id="HeadClass">
		<rect width="1800" x="0" y="0" fill="rgb(255,255,255)" height="1200" />
	</g>
	<g id="LineClass">
		<g id="241">
			<path stroke-width="1" d="M 71 317L 315 319" stroke="rgb(0,255,0)" />
		</g>
		<g id="242">
			<path stroke-width="1" d="M 70 409L 71 317" stroke="rgb(0,255,0)" />
		</g>
		<g id="243">
			<path stroke-width="1" d="M 315 319L 463 215" stroke="rgb(0,255,0)" />
		</g>
		<g id="244">
			<path stroke-width="1" d="M 463 215L 1015 321" stroke="rgb(0,255,0)" />
		</g>
		<g id="245">
			<path stroke-width="1" d="M 463 215L 921 315" stroke="rgb(0,255,0)" />
		</g>
		<g id="246">
			<path stroke-width="1" d="M 921 315L 1015 321" stroke="rgb(0,255,0)" />
		</g>
		<g id="247">
			<path stroke-width="1" d="M 1018 409L 924 408" stroke="rgb(0,255,0)" />
		</g>
		<g id="248">
			<path stroke-width="1" d="M 1015 321L 1192 326" stroke="rgb(0,255,0)" />
		</g>
		<g id="249">
			<path stroke-width="1" d="M 1018 409L 1189 408" stroke="rgb(0,255,0)" />
		</g>
		<g id="250">
			<path stroke-width="1" d="M 1192 326L 1435 329" stroke="rgb(0,255,0)" />
		</g>
		<g id="251">
			<path stroke-width="1" d="M 1189 408L 1441 409" stroke="rgb(0,255,0)" />
		</g>
		<g id="252">
			<path stroke-width="1" d="M 1196 530L 1435 329" stroke="rgb(0,255,0)" />
		</g>
		<g id="253">
			<path stroke-width="1" d="M 1196 530L 1441 409" stroke="rgb(0,255,0)" />
		</g>
		<g id="254">
			<path stroke-width="1" d="M 1299 531L 1435 329" stroke="rgb(0,255,0)" />
		</g>
		<g id="255">
			<path stroke-width="1" d="M 1299 531L 1441 409" stroke="rgb(0,255,0)" />
		</g>
		<g id="256">
			<path stroke-width="1" d="M 1407 529L 1441 409" stroke="rgb(0,255,0)" />
		</g>
		<g id="257">
			<path stroke-width="1" d="M 1407 529L 1435 329" stroke="rgb(0,255,0)" />
		</g>
		<g id="258">
			<path stroke-width="1" d="M 1517 529L 1435 329" stroke="rgb(0,255,0)" />
		</g>
		<g id="259">
			<path stroke-width="1" d="M 1517 529L 1441 409" stroke="rgb(0,255,0)" />
		</g>
		<g id="260">
			<path stroke-width="1" d="M 1193 236L 1192 326" stroke="rgb(0,255,0)" />
		</g>
		<g id="261">
			<path stroke-width="1" d="M 517 514L 929 509" stroke="rgb(0,255,0)" />
		</g>
		<g id="262">
			<path stroke-width="1" d="M 514 584L 929 580" stroke="rgb(0,255,0)" />
		</g>
		<g id="263">
			<path stroke-width="1" d="M 842 450L 517 514" stroke="rgb(0,255,0)" />
		</g>
		<g id="264">
			<path stroke-width="1" d="M 842 450L 514 584" stroke="rgb(0,255,0)" />
		</g>
		<g id="265">
			<path stroke-width="1" d="M 146 495L 71 317" stroke="rgb(0,255,0)" />
		</g>
		<g id="266">
			<path stroke-width="1" d="M 146 495L 70 409" stroke="rgb(0,255,0)" />
		</g>
		<g id="267">
			<path stroke-width="1" d="M 259 491L 70 409" stroke="rgb(0,255,0)" />
		</g>
		<g id="268">
			<path stroke-width="1" d="M 259 491L 71 317" stroke="rgb(0,255,0)" />
		</g>
		<g id="269">
			<path stroke-width="1" d="M 842 450L 506 309" stroke="rgb(0,255,0)" />
		</g>
		<g id="270">
			<path stroke-width="1" d="M 842 450L 510 399" stroke="rgb(0,255,0)" />
		</g>
		<g id="271">
			<path stroke-width="1" d="M 506 309L 510 399" stroke="rgb(0,255,0)" />
		</g>
		<g id="272">
			<path stroke-width="1" d="M 506 309L 921 315" stroke="rgb(0,255,0)" />
		</g>
		<g id="273">
			<path stroke-width="1" d="M 510 399L 924 408" stroke="rgb(0,255,0)" />
		</g>
		<g id="274">
			<path stroke-width="1" d="M 561 448L 517 514" stroke="rgb(0,255,0)" />
		</g>
		<g id="275">
			<path stroke-width="1" d="M 561 448L 514 584" stroke="rgb(0,255,0)" />
		</g>
		<g id="276">
			<path stroke-width="1" d="M 561 448L 506 309" stroke="rgb(0,255,0)" />
		</g>
		<g id="277">
			<path stroke-width="1" d="M 561 448L 510 399" stroke="rgb(0,255,0)" />
		</g>
		<g id="278">
			<path stroke-width="1" d="M 656 450L 506 309" stroke="rgb(0,255,0)" />
		</g>
		<g id="279">
			<path stroke-width="1" d="M 656 450L 510 399" stroke="rgb(0,255,0)" />
		</g>
		<g id="280">
			<path stroke-width="1" d="M 656 450L 517 514" stroke="rgb(0,255,0)" />
		</g>
		<g id="281">
			<path stroke-width="1" d="M 656 450L 514 584" stroke="rgb(0,255,0)" />
		</g>
		<g id="282">
			<path stroke-width="1" d="M 753 450L 506 309" stroke="rgb(0,255,0)" />
		</g>
		<g id="283">
			<path stroke-width="1" d="M 753 450L 510 399" stroke="rgb(0,255,0)" />
		</g>
		<g id="284">
			<path stroke-width="1" d="M 753 450L 517 514" stroke="rgb(0,255,0)" />
		</g>
		<g id="285">
			<path stroke-width="1" d="M 753 450L 514 584" stroke="rgb(0,255,0)" />
		</g>
		<g id="286">
			<path stroke-width="1" d="M 1193 236L 1192 326" stroke="rgb(0,0,255)" />
		</g>
		<g id="287">
			<path stroke-width="1" d="M 506 309L 510 399" stroke="rgb(0,0,255)" />
		</g>
		<g id="288">
			<path stroke-width="1" d="M 506 309L 921 315" stroke="rgb(0,0,255)" />
		</g>
		<g id="289">
			<path stroke-width="1" d="M 510 399L 924 408" stroke="rgb(0,0,255)" />
		</g>
		<g id="290">
			<path stroke-width="1" d="M 854 622L 510 399" stroke="rgb(0,0,255)" />
		</g>
		<g id="291">
			<path stroke-width="1" d="M 153 67L 248 67" stroke="rgb(0,0,255)" />
		</g>
		<g id="292">
			<path stroke-width="1" d="M 150 134L 153 67" stroke="rgb(0,0,255)" />
		</g>
		<g id="293">
			<path stroke-width="1" d="M 248 67L 243 135" stroke="rgb(0,0,255)" />
		</g>
		<g id="294">
			<path stroke-width="1" d="M 150 134L 248 67" stroke="rgb(0,0,255)" />
		</g>
		<g id="295">
			<path stroke-width="1" d="M 153 67L 243 135" stroke="rgb(0,0,255)" />
		</g>
		<g id="296">
			<path stroke-width="1" d="M 150 134L 243 135" stroke="rgb(0,0,255)" />
		</g>
		<g id="297">
			<path stroke-width="1" d="M 150 134L 72 199" stroke="rgb(0,0,255)" />
		</g>
		<g id="298">
			<path stroke-width="1" d="M 243 135L 317 199" stroke="rgb(0,0,255)" />
		</g>
		<g id="299">
			<path stroke-width="1" d="M 72 199L 317 199" stroke="rgb(0,0,255)" />
		</g>
		<g id="300">
			<path stroke-width="1" d="M 74 75L 72 199" stroke="rgb(0,0,255)" />
		</g>
		<g id="301">
			<path stroke-width="1" d="M 321 71L 317 199" stroke="rgb(0,0,255)" />
		</g>
		<g id="302">
			<path stroke-width="1" d="M 72 199L 185 258" stroke="rgb(0,0,255)" />
		</g>
		<g id="303">
			<path stroke-width="1" d="M 185 258L 317 199" stroke="rgb(0,0,255)" />
		</g>
		<g id="304">
			<path stroke-width="1" d="M 71 317L 185 258" stroke="rgb(0,0,255)" />
		</g>
		<g id="305">
			<path stroke-width="1" d="M 185 258L 70 409" stroke="rgb(0,0,255)" />
		</g>
		<g id="306">
			<path stroke-width="1" d="M 75 564L 146 495" stroke="rgb(0,0,255)" />
		</g>
		<g id="307">
			<path stroke-width="1" d="M 72 632L 259 491" stroke="rgb(0,0,255)" />
		</g>
		<g id="308">
			<path stroke-width="1" d="M 75 564L 259 491" stroke="rgb(0,0,255)" />
		</g>
		<g id="309">
			<path stroke-width="1" d="M 72 632L 146 495" stroke="rgb(0,0,255)" />
		</g>
		<g id="310">
			<path stroke-width="1" d="M 70 409L 316 408" stroke="rgb(0,0,255)" />
		</g>
		<g id="311">
			<path stroke-width="1" d="M 536 49L 535 101" stroke="rgb(0,0,255)" />
		</g>
		<g id="312">
			<path stroke-width="1" d="M 535 101L 534 165" stroke="rgb(0,0,255)" />
		</g>
		<g id="313">
			<path stroke-width="1" d="M 609 102L 534 165" stroke="rgb(0,0,255)" />
		</g>
		<g id="314">
			<path stroke-width="1" d="M 609 102L 607 165" stroke="rgb(0,0,255)" />
		</g>
		<g id="315">
			<path stroke-width="1" d="M 609 102L 681 164" stroke="rgb(0,0,255)" />
		</g>
		<g id="316">
			<path stroke-width="1" d="M 681 164L 600 261" stroke="rgb(0,0,255)" />
		</g>
		<g id="317">
			<path stroke-width="1" d="M 600 261L 506 309" stroke="rgb(0,0,255)" />
		</g>
		<g id="318">
			<path stroke-width="1" d="M 600 261L 510 399" stroke="rgb(0,0,255)" />
		</g>
		<g id="319">
			<path stroke-width="1" d="M 794 36L 952 39" stroke="rgb(0,0,255)" />
		</g>
		<g id="320">
			<path stroke-width="1" d="M 794 181L 950 182" stroke="rgb(0,0,255)" />
		</g>
		<g id="321">
			<path stroke-width="1" d="M 794 36L 868 70" stroke="rgb(0,0,255)" />
		</g>
		<g id="322">
			<path stroke-width="1" d="M 868 70L 952 39" stroke="rgb(0,0,255)" />
		</g>
		<g id="323">
			<path stroke-width="1" d="M 795 101L 868 70" stroke="rgb(0,0,255)" />
		</g>
		<g id="324">
			<path stroke-width="1" d="M 868 70L 946 102" stroke="rgb(0,0,255)" />
		</g>
		<g id="325">
			<path stroke-width="1" d="M 872 142L 795 101" stroke="rgb(0,0,255)" />
		</g>
		<g id="326">
			<path stroke-width="1" d="M 872 142L 946 102" stroke="rgb(0,0,255)" />
		</g>
		<g id="327">
			<path stroke-width="1" d="M 872 142L 794 181" stroke="rgb(0,0,255)" />
		</g>
		<g id="328">
			<path stroke-width="1" d="M 872 142L 950 182" stroke="rgb(0,0,255)" />
		</g>
		<g id="329">
			<path stroke-width="1" d="M 872 142L 908 247" stroke="rgb(0,0,255)" />
		</g>
		<g id="330">
			<path stroke-width="1" d="M 837 246L 872 142" stroke="rgb(0,0,255)" />
		</g>
		<g id="331">
			<path stroke-width="1" d="M 908 247L 921 315" stroke="rgb(0,0,255)" />
		</g>
		<g id="332">
			<path stroke-width="1" d="M 837 246L 924 408" stroke="rgb(0,0,255)" />
		</g>
		<g id="333">
			<path stroke-width="1" d="M 1574 630L 1196 530" stroke="rgb(0,0,255)" />
		</g>
		<g id="334">
			<path stroke-width="1" d="M 1574 630L 1299 531" stroke="rgb(0,0,255)" />
		</g>
		<g id="335">
			<path stroke-width="1" d="M 1574 630L 1407 529" stroke="rgb(0,0,255)" />
		</g>
		<g id="336">
			<path stroke-width="1" d="M 1574 630L 1517 529" stroke="rgb(0,0,255)" />
		</g>
		<g id="337">
			<path stroke-width="1" d="M 1573 718L 1196 530" stroke="rgb(0,0,255)" />
		</g>
		<g id="338">
			<path stroke-width="1" d="M 1573 718L 1299 531" stroke="rgb(0,0,255)" />
		</g>
		<g id="339">
			<path stroke-width="1" d="M 1573 718L 1407 529" stroke="rgb(0,0,255)" />
		</g>
		<g id="340">
			<path stroke-width="1" d="M 1573 718L 1517 529" stroke="rgb(0,0,255)" />
		</g>
		<g id="341">
			<path stroke-width="1" d="M 592 622L 517 514" stroke="rgb(0,0,255)" />
		</g>
		<g id="342">
			<path stroke-width="1" d="M 514 584L 675 621" stroke="rgb(0,0,255)" />
		</g>
		<g id="343">
			<path stroke-width="1" d="M 592 622L 593 689" stroke="rgb(0,0,255)" />
		</g>
		<g id="344">
			<path stroke-width="1" d="M 593 689L 589 742" stroke="rgb(0,0,255)" />
		</g>
		<g id="345">
			<path stroke-width="1" d="M 589 742L 760 846" stroke="rgb(0,0,255)" />
		</g>
		<g id="346">
			<path stroke-width="1" d="M 592 622L 675 621" stroke="rgb(0,0,255)" />
		</g>
		<g id="347">
			<path stroke-width="1" d="M 675 621L 677 687" stroke="rgb(0,0,255)" />
		</g>
		<g id="348">
			<path stroke-width="1" d="M 677 687L 675 743" stroke="rgb(0,0,255)" />
		</g>
		<g id="349">
			<path stroke-width="1" d="M 675 743L 759 795" stroke="rgb(0,0,255)" />
		</g>
		<g id="350">
			<path stroke-width="1" d="M 593 689L 677 687" stroke="rgb(0,0,255)" />
		</g>
		<g id="351">
			<path stroke-width="1" d="M 589 742L 675 743" stroke="rgb(0,0,255)" />
		</g>
		<g id="352">
			<path stroke-width="1" d="M 760 846L 759 795" stroke="rgb(0,0,255)" />
		</g>
		<g id="353">
			<path stroke-width="1" d="M 769 622L 593 689" stroke="rgb(0,0,255)" />
		</g>
		<g id="354">
			<path stroke-width="1" d="M 769 622L 767 685" stroke="rgb(0,0,255)" />
		</g>
		<g id="355">
			<path stroke-width="1" d="M 769 622L 932 684" stroke="rgb(0,0,255)" />
		</g>
		<g id="356">
			<path stroke-width="1" d="M 854 622L 854 686" stroke="rgb(0,0,255)" />
		</g>
		<g id="357">
			<path stroke-width="1" d="M 854 686L 854 748" stroke="rgb(0,0,255)" />
		</g>
		<g id="358">
			<path stroke-width="1" d="M 932 684L 930 747" stroke="rgb(0,0,255)" />
		</g>
		<g id="359">
			<path stroke-width="1" d="M 677 687L 767 685" stroke="rgb(0,0,255)" />
		</g>
		<g id="360">
			<path stroke-width="1" d="M 767 685L 854 686" stroke="rgb(0,0,255)" />
		</g>
		<g id="361">
			<path stroke-width="1" d="M 854 686L 932 684" stroke="rgb(0,0,255)" />
		</g>
		<g id="362">
			<path stroke-width="1" d="M 759 795L 854 748" stroke="rgb(0,0,255)" />
		</g>
		<g id="363">
			<path stroke-width="1" d="M 760 846L 930 747" stroke="rgb(0,0,255)" />
		</g>
		<g id="364">
			<path stroke-width="1" d="M 466 794L 759 795" stroke="rgb(0,0,255)" />
		</g>
		<g id="365">
			<path stroke-width="1" d="M 441 852L 760 846" stroke="rgb(0,0,255)" />
		</g>
		<g id="366">
			<path stroke-width="1" d="M 466 794L 510 399" stroke="rgb(0,0,255)" />
		</g>
		<g id="367">
			<path stroke-width="1" d="M 441 852L 506 309" stroke="rgb(0,0,255)" />
		</g>
		<g id="368">
			<path stroke-width="1" d="M 316 408L 463 215" stroke="rgb(0,0,255)" />
		</g>
	</g>
	<g id="NodeClass">
		<g id="1">
			<use x="55" y="301" width="32" height="32" xlink:href="#net:cisco@1" />
		</g>
		<g id="4">
			<use x="54" y="393" width="32" height="32" xlink:href="#net:cisco@1" />
		</g>
		<g id="7">
			<use x="1419" y="313" width="32" height="32" xlink:href="#net:h3c@1" />
		</g>
		<g id="10">
			<use x="1425" y="393" width="32" height="32" xlink:href="#net:h3c@1" />
		</g>
		<g id="13">
			<use x="299" y="303" width="32" height="32" xlink:href="#firewall:topsec@1" />
		</g>
		<g id="16">
			<use x="1177" y="220" width="32" height="32" xlink:href="#firewall:topsec@1" />
		</g>
		<g id="19">
			<use x="490" y="293" width="32" height="32" xlink:href="#net:cisco@1" />
		</g>
		<g id="22">
			<use x="494" y="383" width="32" height="32" xlink:href="#net:cisco@1" />
		</g>
		<g id="25">
			<use x="905" y="299" width="32" height="32" xlink:href="#net:cisco@1" />
		</g>
		<g id="28">
			<use x="999" y="305" width="32" height="32" xlink:href="#net:h3c@1" />
		</g>
		<g id="31">
			<use x="1002" y="393" width="32" height="32" xlink:href="#net:h3c@1" />
		</g>
		<g id="34">
			<use x="908" y="392" width="32" height="32" xlink:href="#net:cisco@1" />
		</g>
		<g id="37">
			<use x="447" y="199" width="32" height="32" xlink:href="#net:cisco@1" />
		</g>
		<g id="40">
			<use x="1164" y="517" width="65" height="26" xlink:href="#host:linux@1" />
		</g>
		<g id="43">
			<use x="1267" y="518" width="65" height="26" xlink:href="#host:linux@1" />
		</g>
		<g id="46">
			<use x="1375" y="516" width="65" height="26" xlink:href="#host:linux@1" />
		</g>
		<g id="49">
			<use x="1485" y="516" width="65" height="26" xlink:href="#host:linux@1" />
		</g>
		<g id="52">
			<use x="1176" y="310" width="32" height="32" xlink:href="#net:h3c@1" />
		</g>
		<g id="55">
			<use x="1173" y="392" width="32" height="32" xlink:href="#net:h3c@1" />
		</g>
		<g id="58">
			<use x="501" y="498" width="32" height="32" xlink:href="#net:cisco@1" />
		</g>
		<g id="61">
			<use x="498" y="568" width="32" height="32" xlink:href="#net:cisco@1" />
		</g>
		<g id="64">
			<use x="913" y="493" width="32" height="32" xlink:href="#net:cisco@1" />
		</g>
		<g id="67">
			<use x="913" y="564" width="32" height="32" xlink:href="#net:cisco@1" />
		</g>
		<g id="70">
			<use x="529" y="435" width="65" height="26" xlink:href="#host:tru64@1" />
		</g>
		<g id="73">
			<use x="624" y="437" width="65" height="26" xlink:href="#host:tru64@1" />
		</g>
		<g id="76">
			<use x="721" y="437" width="65" height="26" xlink:href="#host:tru64@1" />
		</g>
		<g id="79">
			<use x="810" y="437" width="65" height="26" xlink:href="#host:tru64@1" />
		</g>
		<g id="82">
			<use x="114" y="482" width="65" height="26" xlink:href="#host:linux@1" />
		</g>
		<g id="85">
			<use x="227" y="478" width="65" height="26" xlink:href="#host:linux@1" />
		</g>
		<g id="88">
			<use x="838" y="606" width="32" height="32" xlink:href="#防火墙:防火墙@1" />
		</g>
		<g id="91">
			<use x="137" y="51" width="32" height="32" xlink:href="#交换机:交换机@1" />
		</g>
		<g id="94">
			<use x="232" y="51" width="32" height="32" xlink:href="#交换机:交换机@1" />
		</g>
		<g id="97">
			<use x="118" y="121" width="65" height="26" xlink:href="#服务器:服务器@1" />
		</g>
		<g id="100">
			<use x="211" y="122" width="65" height="26" xlink:href="#服务器:服务器@1" />
		</g>
		<g id="103">
			<use x="56" y="183" width="32" height="32" xlink:href="#交换机:交换机@1" />
		</g>
		<g id="106">
			<use x="301" y="183" width="32" height="32" xlink:href="#交换机:交换机@1" />
		</g>
		<g id="109">
			<use x="58" y="59" width="32" height="32" xlink:href="#防火墙:防火墙@1" />
		</g>
		<g id="112">
			<use x="305" y="55" width="32" height="32" xlink:href="#防火墙:防火墙@1" />
		</g>
		<g id="115">
			<use x="169" y="242" width="32" height="32" xlink:href="#WAP:WAP@1" />
		</g>
		<g id="118">
			<use x="59" y="548" width="32" height="32" xlink:href="#交换机:交换机@1" />
		</g>
		<g id="121">
			<use x="56" y="616" width="32" height="32" xlink:href="#交换机:交换机@1" />
		</g>
		<g id="124">
			<use x="300" y="392" width="32" height="32" xlink:href="#防火墙:防火墙@1" />
		</g>
		<g id="127">
			<use x="518" y="149" width="32" height="32" xlink:href="#交换机:交换机@1" />
		</g>
		<g id="130">
			<use x="591" y="149" width="32" height="32" xlink:href="#交换机:交换机@1" />
		</g>
		<g id="133">
			<use x="665" y="148" width="32" height="32" xlink:href="#交换机:交换机@1" />
		</g>
		<g id="136">
			<use x="577" y="89" width="65" height="26" xlink:href="#服务器:服务器@1" />
		</g>
		<g id="139">
			<use x="519" y="85" width="32" height="32" xlink:href="#防火墙:防火墙@1" />
		</g>
		<g id="142">
			<use x="520" y="33" width="32" height="32" xlink:href="#交换机:交换机@1" />
		</g>
		<g id="145">
			<use x="584" y="245" width="32" height="32" xlink:href="#WAP:WAP@1" />
		</g>
		<g id="148">
			<use x="892" y="231" width="32" height="32" xlink:href="#防火墙:防火墙@1" />
		</g>
		<g id="151">
			<use x="821" y="230" width="32" height="32" xlink:href="#防火墙:防火墙@1" />
		</g>
		<g id="154">
			<use x="856" y="126" width="32" height="32" xlink:href="#交换机:交换机@1" />
		</g>
		<g id="157">
			<use x="934" y="166" width="32" height="32" xlink:href="#交换机:交换机@1" />
		</g>
		<g id="160">
			<use x="852" y="54" width="32" height="32" xlink:href="#交换机:交换机@1" />
		</g>
		<g id="163">
			<use x="936" y="23" width="32" height="32" xlink:href="#交换机:交换机@1" />
		</g>
		<g id="166">
			<use x="779" y="85" width="32" height="32" xlink:href="#WAP:WAP@1" />
		</g>
		<g id="169">
			<use x="930" y="86" width="32" height="32" xlink:href="#WAP:WAP@1" />
		</g>
		<g id="172">
			<use x="762" y="168" width="65" height="26" xlink:href="#服务器:服务器@1" />
		</g>
		<g id="175">
			<use x="762" y="23" width="65" height="26" xlink:href="#服务器:服务器@1" />
		</g>
		<g id="178">
			<use x="1558" y="614" width="32" height="32" xlink:href="#交换机:交换机@1" />
		</g>
		<g id="181">
			<use x="1557" y="702" width="32" height="32" xlink:href="#交换机:交换机@1" />
		</g>
		<g id="184">
			<use x="576" y="606" width="32" height="32" xlink:href="#防火墙:防火墙@1" />
		</g>
		<g id="187">
			<use x="659" y="605" width="32" height="32" xlink:href="#防火墙:防火墙@1" />
		</g>
		<g id="190">
			<use x="753" y="606" width="32" height="32" xlink:href="#防火墙:防火墙@1" />
		</g>
		<g id="193">
			<use x="751" y="669" width="32" height="32" xlink:href="#防火墙:防火墙@1" />
		</g>
		<g id="196">
			<use x="577" y="673" width="32" height="32" xlink:href="#交换机:交换机@1" />
		</g>
		<g id="199">
			<use x="661" y="671" width="32" height="32" xlink:href="#交换机:交换机@1" />
		</g>
		<g id="202">
			<use x="916" y="668" width="32" height="32" xlink:href="#交换机:交换机@1" />
		</g>
		<g id="205">
			<use x="838" y="670" width="32" height="32" xlink:href="#交换机:交换机@1" />
		</g>
		<g id="208">
			<use x="576" y="730" width="26" height="25" xlink:href="#三层交换机:三层交换机@1" />
		</g>
		<g id="211">
			<use x="662" y="731" width="26" height="25" xlink:href="#三层交换机:三层交换机@1" />
		</g>
		<g id="214">
			<use x="914" y="731" width="32" height="32" xlink:href="#防火墙:防火墙@1" />
		</g>
		<g id="217">
			<use x="838" y="732" width="32" height="32" xlink:href="#防火墙:防火墙@1" />
		</g>
		<g id="220">
			<use x="744" y="830" width="32" height="32" xlink:href="#路由器:路由器@1" />
		</g>
		<g id="223">
			<use x="743" y="779" width="32" height="32" xlink:href="#路由器:路由器@1" />
		</g>
		<g id="226">
			<use x="425" y="836" width="32" height="32" xlink:href="#路由器:路由器@1" />
		</g>
		<g id="229">
			<use x="450" y="778" width="32" height="32" xlink:href="#路由器:路由器@1" />
		</g>
		<g id="232">
			<use x="1078" y="104" width="64" height="64" xlink:href="#子图:子图@1" />
		</g>
		<g id="235">
			<use x="681" y="325" width="64" height="64" xlink:href="#子图:子图@1" />
		</g>
		<g id="238">
			<use x="1078" y="219" width="64" height="64" xlink:href="#子图:子图@1" />
		</g>
	</g>
	<g id="TextClass">
		<text id="2" x="35" y="343" font-size="16" fill="rgb(0,0,0)" stroke="rgb(0,0,0)">CPU(%):</text>
		<text id="5" x="34" y="435" font-size="16" fill="rgb(0,0,0)" stroke="rgb(0,0,0)">CPU(%):</text>
		<text id="8" x="1399" y="355" font-size="16" fill="rgb(0,0,0)" stroke="rgb(0,0,0)">CPU(%):</text>
		<text id="11" x="1405" y="435" font-size="16" fill="rgb(0,0,0)" stroke="rgb(0,0,0)">CPU(%):</text>
		<text id="14" x="279" y="345" font-size="16" fill="rgb(0,0,0)" stroke="rgb(0,0,0)">CPU(%):</text>
		<text id="17" x="1157" y="262" font-size="16" fill="rgb(0,0,0)" stroke="rgb(0,0,0)">CPU(%):</text>
		<text id="20" x="470" y="335" font-size="16" fill="rgb(0,0,0)" stroke="rgb(0,0,0)">CPU(%):</text>
		<text id="23" x="474" y="425" font-size="16" fill="rgb(0,0,0)" stroke="rgb(0,0,0)">CPU(%):</text>
		<text id="26" x="885" y="341" font-size="16" fill="rgb(0,0,0)" stroke="rgb(0,0,0)">CPU(%):</text>
		<text id="29" x="979" y="347" font-size="16" fill="rgb(0,0,0)" stroke="rgb(0,0,0)">CPU(%):</text>
		<text id="32" x="982" y="435" font-size="16" fill="rgb(0,0,0)" stroke="rgb(0,0,0)">CPU(%):</text>
		<text id="35" x="888" y="434" font-size="16" fill="rgb(0,0,0)" stroke="rgb(0,0,0)">CPU(%):</text>
		<text id="38" x="427" y="241" font-size="16" fill="rgb(0,0,0)" stroke="rgb(0,0,0)">CPU(%):</text>
		<text id="41" x="1144" y="553" font-size="16" fill="rgb(0,0,0)" stroke="rgb(0,0,0)">CPU(%):</text>
		<text id="44" x="1247" y="554" font-size="16" fill="rgb(0,0,0)" stroke="rgb(0,0,0)">CPU(%):</text>
		<text id="47" x="1355" y="552" font-size="16" fill="rgb(0,0,0)" stroke="rgb(0,0,0)">CPU(%):</text>
		<text id="50" x="1465" y="552" font-size="16" fill="rgb(0,0,0)" stroke="rgb(0,0,0)">CPU(%):</text>
		<text id="53" x="1156" y="352" font-size="16" fill="rgb(0,0,0)" stroke="rgb(0,0,0)">CPU(%):</text>
		<text id="56" x="1153" y="434" font-size="16" fill="rgb(0,0,0)" stroke="rgb(0,0,0)">CPU(%):</text>
		<text id="59" x="481" y="540" font-size="16" fill="rgb(0,0,0)" stroke="rgb(0,0,0)">CPU(%):</text>
		<text id="62" x="478" y="610" font-size="16" fill="rgb(0,0,0)" stroke="rgb(0,0,0)">CPU(%):</text>
		<text id="65" x="893" y="535" font-size="16" fill="rgb(0,0,0)" stroke="rgb(0,0,0)">CPU(%):</text>
		<text id="68" x="893" y="606" font-size="16" fill="rgb(0,0,0)" stroke="rgb(0,0,0)">CPU(%):</text>
		<text id="71" x="509" y="471" font-size="16" fill="rgb(0,0,0)" stroke="rgb(0,0,0)">CPU(%):</text>
		<text id="74" x="604" y="473" font-size="16" fill="rgb(0,0,0)" stroke="rgb(0,0,0)">CPU(%):</text>
		<text id="77" x="701" y="473" font-size="16" fill="rgb(0,0,0)" stroke="rgb(0,0,0)">CPU(%):</text>
		<text id="80" x="790" y="473" font-size="16" fill="rgb(0,0,0)" stroke="rgb(0,0,0)">CPU(%):</text>
		<text id="83" x="94" y="518" font-size="16" fill="rgb(0,0,0)" stroke="rgb(0,0,0)">CPU(%):</text>
		<text id="86" x="207" y="514" font-size="16" fill="rgb(0,0,0)" stroke="rgb(0,0,0)">CPU(%):</text>
		<text id="89" x="818" y="648" font-size="16" fill="rgb(0,0,0)" stroke="rgb(0,0,0)">CPU(%):</text>
		<text id="92" x="117" y="93" font-size="16" fill="rgb(0,0,0)" stroke="rgb(0,0,0)">CPU(%):</text>
		<text id="95" x="212" y="93" font-size="16" fill="rgb(0,0,0)" stroke="rgb(0,0,0)">CPU(%):</text>
		<text id="98" x="98" y="157" font-size="16" fill="rgb(0,0,0)" stroke="rgb(0,0,0)">CPU(%):</text>
		<text id="101" x="191" y="158" font-size="16" fill="rgb(0,0,0)" stroke="rgb(0,0,0)">CPU(%):</text>
		<text id="104" x="36" y="225" font-size="16" fill="rgb(0,0,0)" stroke="rgb(0,0,0)">CPU(%):</text>
		<text id="107" x="281" y="225" font-size="16" fill="rgb(0,0,0)" stroke="rgb(0,0,0)">CPU(%):</text>
		<text id="110" x="38" y="101" font-size="16" fill="rgb(0,0,0)" stroke="rgb(0,0,0)">CPU(%):</text>
		<text id="113" x="285" y="97" font-size="16" fill="rgb(0,0,0)" stroke="rgb(0,0,0)">CPU(%):</text>
		<text id="116" x="149" y="284" font-size="16" fill="rgb(0,0,0)" stroke="rgb(0,0,0)">CPU(%):</text>
		<text id="119" x="39" y="590" font-size="16" fill="rgb(0,0,0)" stroke="rgb(0,0,0)">CPU(%):</text>
		<text id="122" x="36" y="658" font-size="16" fill="rgb(0,0,0)" stroke="rgb(0,0,0)">CPU(%):</text>
		<text id="125" x="280" y="434" font-size="16" fill="rgb(0,0,0)" stroke="rgb(0,0,0)">CPU(%):</text>
		<text id="128" x="498" y="191" font-size="16" fill="rgb(0,0,0)" stroke="rgb(0,0,0)">CPU(%):</text>
		<text id="131" x="571" y="191" font-size="16" fill="rgb(0,0,0)" stroke="rgb(0,0,0)">CPU(%):</text>
		<text id="134" x="645" y="190" font-size="16" fill="rgb(0,0,0)" stroke="rgb(0,0,0)">CPU(%):</text>
		<text id="137" x="557" y="125" font-size="16" fill="rgb(0,0,0)" stroke="rgb(0,0,0)">CPU(%):</text>
		<text id="140" x="499" y="127" font-size="16" fill="rgb(0,0,0)" stroke="rgb(0,0,0)">CPU(%):</text>
		<text id="143" x="500" y="75" font-size="16" fill="rgb(0,0,0)" stroke="rgb(0,0,0)">CPU(%):</text>
		<text id="146" x="564" y="287" font-size="16" fill="rgb(0,0,0)" stroke="rgb(0,0,0)">CPU(%):</text>
		<text id="149" x="872" y="273" font-size="16" fill="rgb(0,0,0)" stroke="rgb(0,0,0)">CPU(%):</text>
		<text id="152" x="801" y="272" font-size="16" fill="rgb(0,0,0)" stroke="rgb(0,0,0)">CPU(%):</text>
		<text id="155" x="836" y="168" font-size="16" fill="rgb(0,0,0)" stroke="rgb(0,0,0)">CPU(%):</text>
		<text id="158" x="914" y="208" font-size="16" fill="rgb(0,0,0)" stroke="rgb(0,0,0)">CPU(%):</text>
		<text id="161" x="832" y="96" font-size="16" fill="rgb(0,0,0)" stroke="rgb(0,0,0)">CPU(%):</text>
		<text id="164" x="916" y="65" font-size="16" fill="rgb(0,0,0)" stroke="rgb(0,0,0)">CPU(%):</text>
		<text id="167" x="759" y="127" font-size="16" fill="rgb(0,0,0)" stroke="rgb(0,0,0)">CPU(%):</text>
		<text id="170" x="910" y="128" font-size="16" fill="rgb(0,0,0)" stroke="rgb(0,0,0)">CPU(%):</text>
		<text id="173" x="742" y="204" font-size="16" fill="rgb(0,0,0)" stroke="rgb(0,0,0)">CPU(%):</text>
		<text id="176" x="742" y="59" font-size="16" fill="rgb(0,0,0)" stroke="rgb(0,0,0)">CPU(%):</text>
		<text id="179" x="1538" y="656" font-size="16" fill="rgb(0,0,0)" stroke="rgb(0,0,0)">CPU(%):</text>
		<text id="182" x="1537" y="744" font-size="16" fill="rgb(0,0,0)" stroke="rgb(0,0,0)">CPU(%):</text>
		<text id="185" x="556" y="648" font-size="16" fill="rgb(0,0,0)" stroke="rgb(0,0,0)">CPU(%):</text>
		<text id="188" x="639" y="647" font-size="16" fill="rgb(0,0,0)" stroke="rgb(0,0,0)">CPU(%):</text>
		<text id="191" x="733" y="648" font-size="16" fill="rgb(0,0,0)" stroke="rgb(0,0,0)">CPU(%):</text>
		<text id="194" x="731" y="711" font-size="16" fill="rgb(0,0,0)" stroke="rgb(0,0,0)">CPU(%):</text>
		<text id="197" x="557" y="715" font-size="16" fill="rgb(0,0,0)" stroke="rgb(0,0,0)">CPU(%):</text>
		<text id="200" x="641" y="713" font-size="16" fill="rgb(0,0,0)" stroke="rgb(0,0,0)">CPU(%):</text>
		<text id="203" x="896" y="710" font-size="16" fill="rgb(0,0,0)" stroke="rgb(0,0,0)">CPU(%):</text>
		<text id="206" x="818" y="712" font-size="16" fill="rgb(0,0,0)" stroke="rgb(0,0,0)">CPU(%):</text>
		<text id="209" x="556" y="765" font-size="16" fill="rgb(0,0,0)" stroke="rgb(0,0,0)">CPU(%):</text>
		<text id="212" x="642" y="766" font-size="16" fill="rgb(0,0,0)" stroke="rgb(0,0,0)">CPU(%):</text>
		<text id="215" x="894" y="773" font-size="16" fill="rgb(0,0,0)" stroke="rgb(0,0,0)">CPU(%):</text>
		<text id="218" x="818" y="774" font-size="16" fill="rgb(0,0,0)" stroke="rgb(0,0,0)">CPU(%):</text>
		<text id="221" x="724" y="872" font-size="16" fill="rgb(0,0,0)" stroke="rgb(0,0,0)">CPU(%):</text>
		<text id="224" x="723" y="821" font-size="16" fill="rgb(0,0,0)" stroke="rgb(0,0,0)">CPU(%):</text>
		<text id="227" x="405" y="878" font-size="16" fill="rgb(0,0,0)" stroke="rgb(0,0,0)">CPU(%):</text>
		<text id="230" x="430" y="820" font-size="16" fill="rgb(0,0,0)" stroke="rgb(0,0,0)">CPU(%):</text>
		<text id="233" x="1058" y="178" font-size="16" fill="rgb(0,0,0)" stroke="rgb(0,0,0)">CPU(%):</text>
		<text id="236" x="661" y="399" font-size="16" fill="rgb(0,0,0)" stroke="rgb(0,0,0)">CPU(%):</text>
		<text id="239" x="1058" y="293" font-size="16" fill="rgb(0,0,0)" stroke="rgb(0,0,0)">CPU(%):</text>
	</g>
	<g id="MeasurementClass">
		<g id="3">
			<text x="95" y="343" font-size="16" fill="rgb(0,0,0)" stroke="rgb(0,0,0)">80</text>
		</g>
		<g id="6">
			<text x="94" y="435" font-size="16" fill="rgb(0,0,0)" stroke="rgb(0,0,0)">80</text>
		</g>
		<g id="9">
			<text x="1459" y="355" font-size="16" fill="rgb(0,0,0)" stroke="rgb(0,0,0)">80</text>
		</g>
		<g id="12">
			<text x="1465" y="435" font-size="16" fill="rgb(0,0,0)" stroke="rgb(0,0,0)">80</text>
		</g>
		<g id="15">
			<text x="339" y="345" font-size="16" fill="rgb(0,0,0)" stroke="rgb(0,0,0)">80</text>
		</g>
		<g id="18">
			<text x="1217" y="262" font-size="16" fill="rgb(0,0,0)" stroke="rgb(0,0,0)">80</text>
		</g>
		<g id="21">
			<text x="530" y="335" font-size="16" fill="rgb(0,0,0)" stroke="rgb(0,0,0)">80</text>
		</g>
		<g id="24">
			<text x="534" y="425" font-size="16" fill="rgb(0,0,0)" stroke="rgb(0,0,0)">80</text>
		</g>
		<g id="27">
			<text x="945" y="341" font-size="16" fill="rgb(0,0,0)" stroke="rgb(0,0,0)">80</text>
		</g>
		<g id="30">
			<text x="1039" y="347" font-size="16" fill="rgb(0,0,0)" stroke="rgb(0,0,0)">80</text>
		</g>
		<g id="33">
			<text x="1042" y="435" font-size="16" fill="rgb(0,0,0)" stroke="rgb(0,0,0)">80</text>
		</g>
		<g id="36">
			<text x="948" y="434" font-size="16" fill="rgb(0,0,0)" stroke="rgb(0,0,0)">80</text>
		</g>
		<g id="39">
			<text x="487" y="241" font-size="16" fill="rgb(0,0,0)" stroke="rgb(0,0,0)">80</text>
		</g>
		<g id="42">
			<text x="1204" y="553" font-size="16" fill="rgb(0,0,0)" stroke="rgb(0,0,0)">80</text>
		</g>
		<g id="45">
			<text x="1307" y="554" font-size="16" fill="rgb(0,0,0)" stroke="rgb(0,0,0)">80</text>
		</g>
		<g id="48">
			<text x="1415" y="552" font-size="16" fill="rgb(0,0,0)" stroke="rgb(0,0,0)">80</text>
		</g>
		<g id="51">
			<text x="1525" y="552" font-size="16" fill="rgb(0,0,0)" stroke="rgb(0,0,0)">80</text>
		</g>
		<g id="54">
			<text x="1216" y="352" font-size="16" fill="rgb(0,0,0)" stroke="rgb(0,0,0)">80</text>
		</g>
		<g id="57">
			<text x="1213" y="434" font-size="16" fill="rgb(0,0,0)" stroke="rgb(0,0,0)">80</text>
		</g>
		<g id="60">
			<text x="541" y="540" font-size="16" fill="rgb(0,0,0)" stroke="rgb(0,0,0)">80</text>
		</g>
		<g id="63">
			<text x="538" y="610" font-size="16" fill="rgb(0,0,0)" stroke="rgb(0,0,0)">80</text>
		</g>
		<g id="66">
			<text x="953" y="535" font-size="16" fill="rgb(0,0,0)" stroke="rgb(0,0,0)">80</text>
		</g>
		<g id="69">
			<text x="953" y="606" font-size="16" fill="rgb(0,0,0)" stroke="rgb(0,0,0)">80</text>
		</g>
		<g id="72">
			<text x="569" y="471" font-size="16" fill="rgb(0,0,0)" stroke="rgb(0,0,0)">80</text>
		</g>
		<g id="75">
			<text x="664" y="473" font-size="16" fill="rgb(0,0,0)" stroke="rgb(0,0,0)">80</text>
		</g>
		<g id="78">
			<text x="761" y="473" font-size="16" fill="rgb(0,0,0)" stroke="rgb(0,0,0)">80</text>
		</g>
		<g id="81">
			<text x="850" y="473" font-size="16" fill="rgb(0,0,0)" stroke="rgb(0,0,0)">80</text>
		</g>
		<g id="84">
			<text x="154" y="518" font-size="16" fill="rgb(0,0,0)" stroke="rgb(0,0,0)">80</text>
		</g>
		<g id="87">
			<text x="267" y="514" font-size="16" fill="rgb(0,0,0)" stroke="rgb(0,0,0)">80</text>
		</g>
		<g id="90">
			<text x="878" y="648" font-size="16" fill="rgb(0,0,0)" stroke="rgb(0,0,0)">80</text>
		</g>
		<g id="93">
			<text x="177" y="93" font-size="16" fill="rgb(0,0,0)" stroke="rgb(0,0,0)">80</text>
		</g>
		<g id="96">
			<text x="272" y="93" font-size="16" fill="rgb(0,0,0)" stroke="rgb(0,0,0)">80</text>
		</g>
		<g id="99">
			<text x="158" y="157" font-size="16" fill="rgb(0,0,0)" stroke="rgb(0,0,0)">80</text>
		</g>
		<g id="102">
			<text x="251" y="158" font-size="16" fill="rgb(0,0,0)" stroke="rgb(0,0,0)">80</text>
		</g>
		<g id="105">
			<text x="96" y="225" font-size="16" fill="rgb(0,0,0)" stroke="rgb(0,0,0)">80</text>
		</g>
		<g id="108">
			<text x="341" y="225" font-size="16" fill="rgb(0,0,0)" stroke="rgb(0,0,0)">80</text>
		</g>
		<g id="111">
			<text x="98" y="101" font-size="16" fill="rgb(0,0,0)" stroke="rgb(0,0,0)">80</text>
		</g>
		<g id="114">
			<text x="345" y="97" font-size="16" fill="rgb(0,0,0)" stroke="rgb(0,0,0)">80</text>
		</g>
		<g id="117">
			<text x="209" y="284" font-size="16" fill="rgb(0,0,0)" stroke="rgb(0,0,0)">80</text>
		</g>
		<g id="120">
			<text x="99" y="590" font-size="16" fill="rgb(0,0,0)" stroke="rgb(0,0,0)">80</text>
		</g>
		<g id="123">
			<text x="96" y="658" font-size="16" fill="rgb(0,0,0)" stroke="rgb(0,0,0)">80</text>
		</g>
		<g id="126">
			<text x="340" y="434" font-size="16" fill="rgb(0,0,0)" stroke="rgb(0,0,0)">80</text>
		</g>
		<g id="129">
			<text x="558" y="191" font-size="16" fill="rgb(0,0,0)" stroke="rgb(0,0,0)">80</text>
		</g>
		<g id="132">
			<text x="631" y="191" font-size="16" fill="rgb(0,0,0)" stroke="rgb(0,0,0)">80</text>
		</g>
		<g id="135">
			<text x="705" y="190" font-size="16" fill="rgb(0,0,0)" stroke="rgb(0,0,0)">80</text>
		</g>
		<g id="138">
			<text x="617" y="125" font-size="16" fill="rgb(0,0,0)" stroke="rgb(0,0,0)">80</text>
		</g>
		<g id="141">
			<text x="559" y="127" font-size="16" fill="rgb(0,0,0)" stroke="rgb(0,0,0)">80</text>
		</g>
		<g id="144">
			<text x="560" y="75" font-size="16" fill="rgb(0,0,0)" stroke="rgb(0,0,0)">80</text>
		</g>
		<g id="147">
			<text x="624" y="287" font-size="16" fill="rgb(0,0,0)" stroke="rgb(0,0,0)">80</text>
		</g>
		<g id="150">
			<text x="932" y="273" font-size="16" fill="rgb(0,0,0)" stroke="rgb(0,0,0)">80</text>
		</g>
		<g id="153">
			<text x="861" y="272" font-size="16" fill="rgb(0,0,0)" stroke="rgb(0,0,0)">80</text>
		</g>
		<g id="156">
			<text x="896" y="168" font-size="16" fill="rgb(0,0,0)" stroke="rgb(0,0,0)">80</text>
		</g>
		<g id="159">
			<text x="974" y="208" font-size="16" fill="rgb(0,0,0)" stroke="rgb(0,0,0)">80</text>
		</g>
		<g id="162">
			<text x="892" y="96" font-size="16" fill="rgb(0,0,0)" stroke="rgb(0,0,0)">80</text>
		</g>
		<g id="165">
			<text x="976" y="65" font-size="16" fill="rgb(0,0,0)" stroke="rgb(0,0,0)">80</text>
		</g>
		<g id="168">
			<text x="819" y="127" font-size="16" fill="rgb(0,0,0)" stroke="rgb(0,0,0)">80</text>
		</g>
		<g id="171">
			<text x="970" y="128" font-size="16" fill="rgb(0,0,0)" stroke="rgb(0,0,0)">80</text>
		</g>
		<g id="174">
			<text x="802" y="204" font-size="16" fill="rgb(0,0,0)" stroke="rgb(0,0,0)">80</text>
		</g>
		<g id="177">
			<text x="802" y="59" font-size="16" fill="rgb(0,0,0)" stroke="rgb(0,0,0)">80</text>
		</g>
		<g id="180">
			<text x="1598" y="656" font-size="16" fill="rgb(0,0,0)" stroke="rgb(0,0,0)">80</text>
		</g>
		<g id="183">
			<text x="1597" y="744" font-size="16" fill="rgb(0,0,0)" stroke="rgb(0,0,0)">80</text>
		</g>
		<g id="186">
			<text x="616" y="648" font-size="16" fill="rgb(0,0,0)" stroke="rgb(0,0,0)">80</text>
		</g>
		<g id="189">
			<text x="699" y="647" font-size="16" fill="rgb(0,0,0)" stroke="rgb(0,0,0)">80</text>
		</g>
		<g id="192">
			<text x="793" y="648" font-size="16" fill="rgb(0,0,0)" stroke="rgb(0,0,0)">80</text>
		</g>
		<g id="195">
			<text x="791" y="711" font-size="16" fill="rgb(0,0,0)" stroke="rgb(0,0,0)">80</text>
		</g>
		<g id="198">
			<text x="617" y="715" font-size="16" fill="rgb(0,0,0)" stroke="rgb(0,0,0)">80</text>
		</g>
		<g id="201">
			<text x="701" y="713" font-size="16" fill="rgb(0,0,0)" stroke="rgb(0,0,0)">80</text>
		</g>
		<g id="204">
			<text x="956" y="710" font-size="16" fill="rgb(0,0,0)" stroke="rgb(0,0,0)">80</text>
		</g>
		<g id="207">
			<text x="878" y="712" font-size="16" fill="rgb(0,0,0)" stroke="rgb(0,0,0)">80</text>
		</g>
		<g id="210">
			<text x="616" y="765" font-size="16" fill="rgb(0,0,0)" stroke="rgb(0,0,0)">80</text>
		</g>
		<g id="213">
			<text x="702" y="766" font-size="16" fill="rgb(0,0,0)" stroke="rgb(0,0,0)">80</text>
		</g>
		<g id="216">
			<text x="954" y="773" font-size="16" fill="rgb(0,0,0)" stroke="rgb(0,0,0)">80</text>
		</g>
		<g id="219">
			<text x="878" y="774" font-size="16" fill="rgb(0,0,0)" stroke="rgb(0,0,0)">80</text>
		</g>
		<g id="222">
			<text x="784" y="872" font-size="16" fill="rgb(0,0,0)" stroke="rgb(0,0,0)">80</text>
		</g>
		<g id="225">
			<text x="783" y="821" font-size="16" fill="rgb(0,0,0)" stroke="rgb(0,0,0)">80</text>
		</g>
		<g id="228">
			<text x="465" y="878" font-size="16" fill="rgb(0,0,0)" stroke="rgb(0,0,0)">80</text>
		</g>
		<g id="231">
			<text x="490" y="820" font-size="16" fill="rgb(0,0,0)" stroke="rgb(0,0,0)">80</text>
		</g>
		<g id="234">
			<text x="1118" y="178" font-size="16" fill="rgb(0,0,0)" stroke="rgb(0,0,0)">80</text>
		</g>
		<g id="237">
			<text x="721" y="399" font-size="16" fill="rgb(0,0,0)" stroke="rgb(0,0,0)">80</text>
		</g>
		<g id="240">
			<text x="1118" y="293" font-size="16" fill="rgb(0,0,0)" stroke="rgb(0,0,0)">80</text>
		</g>
	</g>
</svg>

